<svg width="430" height="37" viewBox="0 0 430 37" fill="none" xmlns="http://www.w3.org/2000/svg">
<path id="Kang So Hyun" d="M0.491211 35.9023C0.588867 35.5605 0.678385 35.1374 0.759766 34.6328C0.857422 34.1283 0.938802 33.5016 1.00391 32.7529C1.06901 32.0042 1.11784 31.1172 1.15039 30.0918C1.18294 29.0501 1.19922 27.8376 1.19922 26.4541V10.5605C1.19922 9.17708 1.18294 7.97266 1.15039 6.94727C1.11784 5.9056 1.06901 5.01042 1.00391 4.26172C0.938802 3.49674 0.857422 2.86198 0.759766 2.35742C0.678385 1.85286 0.588867 1.42969 0.491211 1.08789V0.990234H6.35059V1.08789C6.25293 1.42969 6.15527 1.85286 6.05762 2.35742C5.97624 2.86198 5.90299 3.49674 5.83789 4.26172C5.78906 5.01042 5.74023 5.9056 5.69141 6.94727C5.65885 7.97266 5.64258 9.17708 5.64258 10.5605V16.0049L19.9004 4.35938C21.4954 3.05729 22.293 1.93424 22.293 0.990234H29.1533V1.08789C28.193 1.31576 27.2165 1.75521 26.2236 2.40625C25.2471 3.04102 24.2054 3.82227 23.0986 4.75L10.501 15.2969L25.6621 31.9473C26.2969 32.5983 26.834 33.1436 27.2734 33.583C27.7292 34.0062 28.1279 34.3643 28.4697 34.6572C28.8115 34.9339 29.1208 35.1699 29.3975 35.3652C29.6904 35.5443 29.9915 35.7233 30.3008 35.9023V36H23.1475C23.0824 35.8535 22.9684 35.6663 22.8057 35.4385C22.6592 35.2106 22.4801 34.9746 22.2686 34.7305C22.0732 34.4863 21.8535 34.234 21.6094 33.9736C21.3815 33.7132 21.1618 33.4691 20.9502 33.2412L5.64258 16.4443V26.4541C5.64258 27.8376 5.65885 29.0501 5.69141 30.0918C5.74023 31.1172 5.78906 32.0042 5.83789 32.7529C5.90299 33.5016 5.97624 34.1283 6.05762 34.6328C6.15527 35.1374 6.25293 35.5605 6.35059 35.9023V36H0.491211V35.9023ZM58.4648 27.748C58.0254 27.748 57.472 27.748 56.8047 27.748C56.1536 27.748 55.4375 27.748 54.6562 27.748C53.875 27.748 53.0693 27.748 52.2393 27.748C51.4092 27.748 50.6198 27.7562 49.8711 27.7725C49.1224 27.7725 48.4388 27.7806 47.8203 27.7969C47.2018 27.7969 46.7217 27.7969 46.3799 27.7969L45.4766 29.7012C45.0859 30.4824 44.7523 31.166 44.4756 31.752C44.1989 32.3216 43.971 32.8262 43.792 33.2656C43.613 33.7051 43.4827 34.0876 43.4014 34.4131C43.32 34.7223 43.2793 35.0153 43.2793 35.292C43.2793 35.471 43.2874 35.6094 43.3037 35.707C43.32 35.7884 43.3444 35.8535 43.377 35.9023V36H39.0801V35.9023C39.194 35.7884 39.373 35.5443 39.6172 35.1699C39.8613 34.7793 40.138 34.3073 40.4473 33.7539C40.7728 33.2005 41.1146 32.5739 41.4727 31.874C41.847 31.1742 42.2132 30.4499 42.5713 29.7012L52.5322 9.14453H54.3633L64.1289 29.7012C64.5033 30.4824 64.8776 31.2311 65.252 31.9473C65.6426 32.6634 66.0007 33.3063 66.3262 33.876C66.6517 34.4294 66.9365 34.8932 67.1807 35.2676C67.4248 35.6257 67.5876 35.8372 67.6689 35.9023V36H61.4189C61.4515 35.8698 61.4678 35.7559 61.4678 35.6582C61.4678 35.5443 61.4678 35.4222 61.4678 35.292C61.4678 34.9339 61.3864 34.5026 61.2236 33.998C61.0771 33.4935 60.89 32.9808 60.6621 32.46C60.4505 31.9229 60.2227 31.4102 59.9785 30.9219C59.7507 30.4336 59.5635 30.0267 59.417 29.7012L58.4648 27.748ZM47.332 25.8438H48.8213C49.5049 25.8438 50.2292 25.8438 50.9941 25.8438C51.7754 25.8275 52.5566 25.8193 53.3379 25.8193C54.1191 25.8193 54.876 25.8193 55.6084 25.8193C56.3408 25.8031 57 25.7949 57.5859 25.7949L52.5322 15.0039L47.332 25.8438ZM104.109 36.3418H103.157L83.748 17.25V25.9414C83.748 27.4062 83.7562 28.6839 83.7725 29.7744C83.7887 30.8649 83.8132 31.8089 83.8457 32.6064C83.8945 33.3877 83.9515 34.0469 84.0166 34.584C84.098 35.1211 84.1956 35.5605 84.3096 35.9023V36H80.6475V35.9023C80.7614 35.5605 80.859 35.1211 80.9404 34.584C81.0218 34.0469 81.0869 33.3877 81.1357 32.6064C81.1846 31.8089 81.2171 30.8649 81.2334 29.7744C81.2497 28.6839 81.2578 27.4062 81.2578 25.9414V19.7891C81.2578 18.3242 81.2497 17.0547 81.2334 15.9805C81.2171 14.89 81.1846 13.9541 81.1357 13.1729C81.0869 12.3753 81.0218 11.708 80.9404 11.1709C80.859 10.6338 80.7614 10.1943 80.6475 9.85254V9.75488H82.1611L101.595 28.9443V19.7891C101.595 18.3242 101.587 17.0547 101.57 15.9805C101.554 14.89 101.521 13.9541 101.473 13.1729C101.44 12.3753 101.391 11.708 101.326 11.1709C101.261 10.6338 101.172 10.1943 101.058 9.85254V9.75488H104.695V9.85254C104.581 10.1943 104.484 10.6338 104.402 11.1709C104.337 11.708 104.28 12.3753 104.231 13.1729C104.183 13.9541 104.15 14.89 104.134 15.9805C104.118 17.0547 104.109 18.3242 104.109 19.7891V36.3418ZM145.115 33.0459C145.115 33.2575 145.091 33.4365 145.042 33.583C145.009 33.7295 144.92 33.8516 144.773 33.9492C143.618 34.763 142.267 35.4141 140.721 35.9023C139.191 36.3743 137.392 36.6104 135.325 36.6104C132.998 36.6104 130.874 36.2767 128.953 35.6094C127.049 34.9421 125.413 34.0143 124.046 32.8262C122.679 31.6217 121.613 30.1813 120.848 28.5049C120.099 26.8285 119.725 24.973 119.725 22.9385C119.725 21.1969 120.066 19.5042 120.75 17.8604C121.45 16.2165 122.451 14.7598 123.753 13.4902C125.055 12.2207 126.634 11.2035 128.489 10.4385C130.361 9.6735 132.469 9.29102 134.812 9.29102C136.033 9.29102 137.189 9.36426 138.279 9.51074C139.37 9.64095 140.42 9.85254 141.429 10.1455L143.26 14.54L143.016 14.7109C142.039 13.5879 140.859 12.7008 139.476 12.0498C138.092 11.3825 136.505 11.0488 134.715 11.0488C133.25 11.0488 131.899 11.2848 130.662 11.7568C129.441 12.2288 128.375 12.9206 127.464 13.832C126.569 14.7272 125.869 15.834 125.364 17.1523C124.86 18.4707 124.607 19.9681 124.607 21.6445C124.607 23.5326 124.843 25.2822 125.315 26.8936C125.787 28.5049 126.495 29.9046 127.439 31.0928C128.383 32.2646 129.547 33.1842 130.931 33.8516C132.33 34.5189 133.958 34.8525 135.813 34.8525C137.409 34.8525 138.646 34.6491 139.524 34.2422C140.42 33.8353 140.867 33.3714 140.867 32.8506V31.5566C140.867 30.7103 140.859 29.9779 140.843 29.3594C140.826 28.7409 140.802 28.2119 140.77 27.7725C140.737 27.3167 140.688 26.9261 140.623 26.6006C140.574 26.2751 140.509 25.974 140.428 25.6973V25.5996H145.628V25.6973C145.547 25.9414 145.473 26.2344 145.408 26.5762C145.343 26.918 145.286 27.3249 145.237 27.7969C145.205 28.2689 145.172 28.8223 145.14 29.457C145.123 30.0918 145.115 30.8242 145.115 31.6543V33.0459ZM200.589 6.55664H200.052C199.922 6.18229 199.71 5.75911 199.417 5.28711C199.14 4.8151 198.766 4.37565 198.294 3.96875C197.838 3.54557 197.277 3.19564 196.609 2.91895C195.958 2.64225 195.185 2.50391 194.29 2.50391C193.493 2.50391 192.785 2.62598 192.166 2.87012C191.548 3.11426 191.027 3.45605 190.604 3.89551C190.197 4.33496 189.887 4.85579 189.676 5.45801C189.464 6.06022 189.358 6.72754 189.358 7.45996C189.358 8.63184 189.684 9.75488 190.335 10.8291C191.002 11.887 191.832 12.9368 192.825 13.9785C193.818 15.0202 194.892 16.0618 196.048 17.1035C197.203 18.1452 198.278 19.2275 199.271 20.3506C200.263 21.4736 201.085 22.6536 201.736 23.8906C202.404 25.1113 202.737 26.4297 202.737 27.8457C202.737 28.9036 202.55 29.9697 202.176 31.0439C201.818 32.1019 201.256 33.054 200.491 33.9004C199.726 34.7467 198.742 35.4385 197.537 35.9756C196.333 36.4964 194.9 36.7568 193.24 36.7568C192.312 36.7568 191.425 36.6673 190.579 36.4883C189.749 36.3255 188.976 36.1221 188.26 35.8779C187.56 35.6175 186.925 35.3408 186.355 35.0479C185.802 34.7549 185.346 34.4863 184.988 34.2422L185.55 28.8467H186.16C186.339 29.6117 186.632 30.3441 187.039 31.0439C187.446 31.7275 187.942 32.3379 188.528 32.875C189.131 33.3958 189.814 33.819 190.579 34.1445C191.344 34.4538 192.182 34.6084 193.094 34.6084C193.924 34.6084 194.664 34.4863 195.315 34.2422C195.983 33.9818 196.552 33.6318 197.024 33.1924C197.496 32.7367 197.854 32.1995 198.099 31.5811C198.359 30.9626 198.489 30.2871 198.489 29.5547C198.489 28.5293 198.302 27.5853 197.928 26.7227C197.553 25.8438 197.057 25.0137 196.438 24.2324C195.836 23.4512 195.145 22.6943 194.363 21.9619C193.598 21.2295 192.809 20.4971 191.995 19.7646C191.181 19.016 190.384 18.251 189.603 17.4697C188.838 16.6885 188.146 15.8584 187.527 14.9795C186.925 14.0843 186.437 13.1322 186.062 12.123C185.688 11.0977 185.501 9.97461 185.501 8.75391C185.501 7.4681 185.745 6.3125 186.233 5.28711C186.738 4.24544 187.397 3.3584 188.211 2.62598C189.041 1.89355 189.977 1.33203 191.019 0.941406C192.06 0.550781 193.134 0.355469 194.241 0.355469C195.055 0.355469 195.804 0.420573 196.487 0.550781C197.171 0.68099 197.781 0.835612 198.318 1.01465C198.872 1.19368 199.352 1.37272 199.759 1.55176C200.166 1.73079 200.499 1.87728 200.76 1.99121L200.589 6.55664ZM217.059 22.792C217.059 20.8714 217.417 19.0892 218.133 17.4453C218.865 15.8014 219.858 14.3773 221.111 13.1729C222.365 11.9521 223.846 11 225.555 10.3164C227.264 9.63281 229.095 9.29102 231.048 9.29102C232.968 9.29102 234.775 9.61654 236.468 10.2676C238.177 10.9023 239.658 11.8138 240.911 13.002C242.181 14.1901 243.182 15.6305 243.914 17.3232C244.646 19.016 245.013 20.9121 245.013 23.0117C245.013 24.7533 244.703 26.4378 244.085 28.0654C243.466 29.6768 242.563 31.109 241.375 32.3623C240.187 33.5993 238.722 34.5921 236.98 35.3408C235.239 36.0732 233.245 36.4395 230.999 36.4395C229.095 36.4395 227.296 36.1221 225.604 35.4873C223.911 34.8525 222.43 33.9492 221.16 32.7773C219.891 31.5892 218.89 30.1569 218.157 28.4805C217.425 26.7878 217.059 24.8916 217.059 22.792ZM231.609 34.7061C232.846 34.7061 233.986 34.4619 235.027 33.9736C236.069 33.4854 236.964 32.7855 237.713 31.874C238.478 30.9626 239.064 29.8558 239.471 28.5537C239.894 27.2354 240.105 25.7542 240.105 24.1104C240.105 22.2386 239.902 20.5052 239.495 18.9102C239.104 17.3151 238.502 15.9398 237.688 14.7842C236.891 13.6123 235.89 12.7008 234.686 12.0498C233.481 11.3825 232.073 11.0488 230.462 11.0488C229.225 11.0488 228.086 11.2848 227.044 11.7568C226.002 12.2288 225.099 12.9124 224.334 13.8076C223.585 14.7028 222.999 15.8014 222.576 17.1035C222.153 18.4056 221.941 19.8867 221.941 21.5469C221.941 23.4023 222.145 25.1357 222.552 26.7471C222.975 28.3421 223.585 29.7337 224.383 30.9219C225.197 32.0938 226.206 33.0215 227.41 33.7051C228.615 34.3724 230.014 34.7061 231.609 34.7061ZM309.495 19.252C308.844 19.2357 308.03 19.2275 307.054 19.2275C306.077 19.2113 305.011 19.195 303.855 19.1787C302.716 19.1624 301.52 19.1543 300.267 19.1543C299.03 19.138 297.817 19.1299 296.629 19.1299C295.441 19.1136 294.31 19.1136 293.235 19.1299C292.161 19.1462 291.225 19.1706 290.428 19.2031V26.4541C290.428 27.8376 290.444 29.0501 290.477 30.0918C290.525 31.1172 290.574 32.0042 290.623 32.7529C290.688 33.5016 290.761 34.1283 290.843 34.6328C290.94 35.1374 291.038 35.5605 291.136 35.9023V36H285.276V35.9023C285.374 35.5605 285.464 35.1374 285.545 34.6328C285.643 34.1283 285.724 33.5016 285.789 32.7529C285.854 32.0042 285.903 31.1172 285.936 30.0918C285.968 29.0501 285.984 27.8376 285.984 26.4541V10.5605C285.984 9.17708 285.968 7.97266 285.936 6.94727C285.903 5.9056 285.854 5.01042 285.789 4.26172C285.724 3.49674 285.643 2.86198 285.545 2.35742C285.464 1.85286 285.374 1.42969 285.276 1.08789V0.990234H291.136V1.08789C291.038 1.42969 290.94 1.85286 290.843 2.35742C290.761 2.86198 290.688 3.49674 290.623 4.26172C290.574 5.01042 290.525 5.9056 290.477 6.94727C290.444 7.97266 290.428 9.17708 290.428 10.5605V16.8105C291.274 16.8431 292.234 16.8675 293.309 16.8838C294.383 16.8838 295.506 16.8838 296.678 16.8838C297.85 16.8675 299.038 16.8512 300.242 16.835C301.463 16.8187 302.635 16.8024 303.758 16.7861C304.897 16.7536 305.955 16.721 306.932 16.6885C307.924 16.6559 308.779 16.6234 309.495 16.5908V10.5605C309.495 9.17708 309.471 7.97266 309.422 6.94727C309.389 5.9056 309.34 5.01042 309.275 4.26172C309.227 3.49674 309.153 2.86198 309.056 2.35742C308.974 1.85286 308.885 1.42969 308.787 1.08789V0.990234H314.646V1.08789C314.549 1.42969 314.451 1.85286 314.354 2.35742C314.272 2.86198 314.199 3.49674 314.134 4.26172C314.069 5.01042 314.02 5.9056 313.987 6.94727C313.955 7.97266 313.938 9.17708 313.938 10.5605V26.4541C313.938 27.8376 313.955 29.0501 313.987 30.0918C314.02 31.1172 314.069 32.0042 314.134 32.7529C314.199 33.5016 314.272 34.1283 314.354 34.6328C314.451 35.1374 314.549 35.5605 314.646 35.9023V36H308.787V35.9023C308.885 35.5605 308.974 35.1374 309.056 34.6328C309.153 34.1283 309.227 33.5016 309.275 32.7529C309.34 32.0042 309.389 31.1172 309.422 30.0918C309.471 29.0501 309.495 27.8376 309.495 26.4541V19.252ZM342.859 25.9414C342.859 27.4062 342.876 28.6839 342.908 29.7744C342.941 30.8649 342.981 31.8089 343.03 32.6064C343.095 33.3877 343.169 34.0469 343.25 34.584C343.348 35.1211 343.453 35.5605 343.567 35.9023V36H337.903V35.9023C338.017 35.5605 338.115 35.1211 338.196 34.584C338.294 34.0469 338.367 33.3877 338.416 32.6064C338.481 31.8089 338.53 30.8649 338.562 29.7744C338.595 28.6839 338.611 27.4062 338.611 25.9414V24.2568L329.822 12.6602C329.236 11.8789 328.675 11.2523 328.138 10.7803C327.601 10.292 327.194 9.98275 326.917 9.85254V9.75488H333.851C333.851 10.0479 333.956 10.5036 334.168 11.1221C334.38 11.7243 334.811 12.4648 335.462 13.3438L341.663 21.5469L348.011 13.002C348.466 12.3835 348.808 11.7731 349.036 11.1709C349.28 10.5687 349.402 10.0967 349.402 9.75488H353.87V9.85254C353.463 10.1292 353.04 10.4792 352.601 10.9023C352.177 11.3255 351.681 11.9277 351.111 12.709L342.859 23.8906V25.9414ZM386.16 19.6914C386.16 18.2428 386.152 16.9814 386.136 15.9072C386.119 14.833 386.087 13.9053 386.038 13.124C385.989 12.3428 385.932 11.6917 385.867 11.1709C385.802 10.6338 385.721 10.1943 385.623 9.85254V9.75488H389.212V9.85254C389.114 10.1943 389.033 10.6338 388.968 11.1709C388.903 11.708 388.846 12.3753 388.797 13.1729C388.748 13.9541 388.715 14.89 388.699 15.9805C388.683 17.0547 388.675 18.3242 388.675 19.7891V26.7959C388.675 28.5537 388.398 30.0511 387.845 31.2881C387.308 32.5251 386.559 33.5423 385.599 34.3398C384.638 35.1211 383.491 35.6908 382.156 36.0488C380.838 36.4232 379.389 36.6104 377.811 36.6104C376.215 36.6104 374.734 36.4313 373.367 36.0732C372 35.7314 370.812 35.1781 369.803 34.4131C368.81 33.6481 368.021 32.6553 367.435 31.4346C366.865 30.2139 366.58 28.7327 366.58 26.9912V19.7891C366.58 18.3242 366.564 17.0547 366.531 15.9805C366.499 14.89 366.45 13.9541 366.385 13.1729C366.32 12.3753 366.246 11.708 366.165 11.1709C366.084 10.6338 365.986 10.1943 365.872 9.85254V9.75488H371.512V9.85254C371.398 10.1943 371.3 10.6338 371.219 11.1709C371.137 11.6917 371.064 12.3428 370.999 13.124C370.95 13.9053 370.91 14.833 370.877 15.9072C370.844 16.9814 370.828 18.2428 370.828 19.6914V26.9912C370.828 28.4398 371.048 29.6361 371.487 30.5801C371.927 31.5078 372.505 32.2484 373.221 32.8018C373.937 33.3551 374.751 33.7458 375.662 33.9736C376.574 34.1852 377.509 34.291 378.47 34.291C379.446 34.291 380.39 34.1852 381.302 33.9736C382.229 33.7458 383.051 33.3551 383.768 32.8018C384.5 32.2484 385.078 31.5078 385.501 30.5801C385.94 29.6361 386.16 28.4398 386.16 26.9912V19.6914ZM429.021 36.3418H428.069L408.66 17.25V25.9414C408.66 27.4062 408.668 28.6839 408.685 29.7744C408.701 30.8649 408.725 31.8089 408.758 32.6064C408.807 33.3877 408.864 34.0469 408.929 34.584C409.01 35.1211 409.108 35.5605 409.222 35.9023V36H405.56V35.9023C405.674 35.5605 405.771 35.1211 405.853 34.584C405.934 34.0469 405.999 33.3877 406.048 32.6064C406.097 31.8089 406.129 30.8649 406.146 29.7744C406.162 28.6839 406.17 27.4062 406.17 25.9414V19.7891C406.17 18.3242 406.162 17.0547 406.146 15.9805C406.129 14.89 406.097 13.9541 406.048 13.1729C405.999 12.3753 405.934 11.708 405.853 11.1709C405.771 10.6338 405.674 10.1943 405.56 9.85254V9.75488H407.073L426.507 28.9443V19.7891C426.507 18.3242 426.499 17.0547 426.482 15.9805C426.466 14.89 426.434 13.9541 426.385 13.1729C426.352 12.3753 426.303 11.708 426.238 11.1709C426.173 10.6338 426.084 10.1943 425.97 9.85254V9.75488H429.607V9.85254C429.493 10.1943 429.396 10.6338 429.314 11.1709C429.249 11.708 429.192 12.3753 429.144 13.1729C429.095 13.9541 429.062 14.89 429.046 15.9805C429.03 17.0547 429.021 18.3242 429.021 19.7891V36.3418Z" fill="black"/>
</svg>
